<svg width="100%"
     height="100%"
     viewBox="0 0 81 84"
     fill="none"
     xmlns="http://www.w3.org/2000/svg">
<path d="M80.9494 79.8664L75.4113 47.9336H77.2817C78.7864 47.9336 79.9985 46.7215 79.9985 45.2168V25.1543C79.9985 23.6496 78.7864 22.4375 77.2817 22.4375H51.5767V3.41992C51.5767 1.91523 50.3646 0.703125 48.8599 0.703125H32.1411C30.6364 0.703125 29.4243 1.91523 29.4243 3.41992V22.4375H3.71924C2.21455 22.4375 1.00244 23.6496 1.00244 25.1543V45.2168C1.00244 46.7215 2.21455 47.9336 3.71924 47.9336H5.58965L0.0515627 79.8664C0.020215 80.0231 0.00976562 80.1799 0.00976562 80.3262C0.00976562 81.8309 1.22188 83.043 2.72656 83.043H78.2744C78.4312 83.043 78.5879 83.0325 78.7342 83.0012C80.218 82.7504 81.2106 81.3397 80.9494 79.8664ZM8.31689 29.752H36.7388V8.01758H44.2622V29.752H72.6841V40.6191H8.31689V29.752ZM57.2192 75.7285V59.4277C57.2192 58.968 56.8431 58.5918 56.3833 58.5918H51.3677C50.9079 58.5918 50.5317 58.968 50.5317 59.4277V75.7285H30.4692V59.4277C30.4692 58.968 30.0931 58.5918 29.6333 58.5918H24.6177C24.1579 58.5918 23.7817 58.968 23.7817 59.4277V75.7285H8.1915L12.9041 48.5605H68.0864L72.799 75.7285H57.2192Z"
      fill="#555555" />
</svg>