<svg width="42" height="42" viewBox="0 0 42 42" fill="none" xmlns="http://www.w3.org/2000/svg">
<path d="M16.8 17.85C16.8 18.6854 16.4681 19.4867 15.8774 20.0774C15.2866 20.6681 14.4854 21 13.65 21C12.8146 21 12.0134 20.6681 11.4226 20.0774C10.8319 19.4867 10.5 18.6854 10.5 17.85C10.5 17.0146 10.8319 16.2134 11.4226 15.6226C12.0134 15.0319 12.8146 14.7 13.65 14.7C14.4854 14.7 15.2866 15.0319 15.8774 15.6226C16.4681 16.2134 16.8 17.0146 16.8 17.85Z" fill="#555555"/>
<path d="M8.40002 24.5679C8.40002 23.4675 9.29252 22.575 10.3929 22.575H16.905C18.0054 22.575 18.8979 23.4675 18.8979 24.5679C18.8979 26.3466 17.6862 27.8964 15.96 28.329L15.8361 28.3605C14.3997 28.7175 12.8961 28.7175 11.4597 28.3605L11.3337 28.329C10.4955 28.1188 9.75146 27.6345 9.21993 26.9531C8.6884 26.2716 8.39982 25.4321 8.40002 24.5679V24.5679Z" fill="#555555"/>
<path d="M24.15 16.8C23.8716 16.8 23.6045 16.9107 23.4076 17.1076C23.2107 17.3045 23.1 17.5716 23.1 17.85C23.1 18.1285 23.2107 18.3956 23.4076 18.5925C23.6045 18.7894 23.8716 18.9 24.15 18.9H30.45C30.7285 18.9 30.9956 18.7894 31.1925 18.5925C31.3894 18.3956 31.5 18.1285 31.5 17.85C31.5 17.5716 31.3894 17.3045 31.1925 17.1076C30.9956 16.9107 30.7285 16.8 30.45 16.8H24.15Z" fill="#555555"/>
<path d="M24.15 23.1C23.8716 23.1 23.6045 23.2107 23.4076 23.4076C23.2107 23.6045 23.1 23.8716 23.1 24.15C23.1 24.4285 23.2107 24.6956 23.4076 24.8925C23.6045 25.0894 23.8716 25.2 24.15 25.2H30.45C30.7285 25.2 30.9956 25.0894 31.1925 24.8925C31.3894 24.6956 31.5 24.4285 31.5 24.15C31.5 23.8716 31.3894 23.6045 31.1925 23.4076C30.9956 23.2107 30.7285 23.1 30.45 23.1H24.15Z" fill="#555555"/>
<path d="M4.20001 12.075C4.20001 10.0464 5.84641 8.40002 7.87501 8.40002H34.125C36.1536 8.40002 37.8 10.0464 37.8 12.075V29.925C37.8 30.8997 37.4128 31.8344 36.7236 32.5236C36.0344 33.2128 35.0997 33.6 34.125 33.6H7.87501C6.90034 33.6 5.96559 33.2128 5.27639 32.5236C4.5872 31.8344 4.20001 30.8997 4.20001 29.925V12.075ZM7.87501 10.5C7.4573 10.5 7.05669 10.666 6.76132 10.9613C6.46595 11.2567 6.30001 11.6573 6.30001 12.075V29.925C6.30001 30.7944 7.00561 31.5 7.87501 31.5H34.125C34.5427 31.5 34.9433 31.3341 35.2387 31.0387C35.5341 30.7433 35.7 30.3427 35.7 29.925V12.075C35.7 11.6573 35.5341 11.2567 35.2387 10.9613C34.9433 10.666 34.5427 10.5 34.125 10.5H7.87501Z" fill="#555555"/>
</svg>
