<svg width="100%"
     height="100%"
     viewBox="0 0 18 18"
     fill="none"
     xmlns="http://www.w3.org/2000/svg">
<path d="M13.4223 10.4432C13.2301 10.2686 12.9776 10.1754 12.7181 10.1835C12.4585 10.1915 12.2123 10.3001 12.0313 10.4862L9.63928 12.9472C9.06328 12.8372 7.90528 12.4762 6.71328 11.2872C5.52128 10.0942 5.16028 8.93324 5.05328 8.36124L7.51228 5.96724C7.69869 5.78637 7.80742 5.54006 7.81544 5.28045C7.82347 5.02083 7.73017 4.76828 7.55528 4.57624L3.86028 0.513239C3.68532 0.320596 3.44216 0.203743 3.18243 0.187499C2.92271 0.171254 2.66688 0.256897 2.46928 0.426239L0.299282 2.28724C0.126104 2.46065 0.0225627 2.69158 0.00828196 2.93624C-0.00671804 3.18624 -0.292718 9.10824 4.29928 13.7022C8.30528 17.7072 13.3243 18.0002 14.7053 18.0002C14.9083 18.0002 15.0313 17.9942 15.0643 17.9922C15.3088 17.9787 15.5397 17.8751 15.7123 17.7012L17.5733 15.5302C17.7425 15.3327 17.8282 15.077 17.8121 14.8173C17.7961 14.5577 17.6796 14.3145 17.4873 14.1392L13.4223 10.4432V10.4432Z"
      fill="#FF0000" />
</svg>