<svg width="23" height="24" viewBox="0 0 23 24" fill="none" xmlns="http://www.w3.org/2000/svg">
<g clip-path="url(#clip0_301:21)">
<path d="M12 5.21698C11.3083 5.21698 10.645 4.94221 10.1559 4.45311C9.6668 3.96402 9.39203 3.30066 9.39203 2.60898C9.39203 1.91729 9.6668 1.25394 10.1559 0.764842C10.645 0.275747 11.3083 0.000976563 12 0.000976562C12.6917 0.000976563 13.3551 0.275747 13.8442 0.764842C14.3333 1.25394 14.608 1.91729 14.608 2.60898C14.608 3.30066 14.3333 3.96402 13.8442 4.45311C13.3551 4.94221 12.6917 5.21698 12 5.21698Z" fill="white"/>
<path d="M20.609 5.21698C19.9173 5.21698 19.2539 4.94221 18.7648 4.45311C18.2757 3.96402 18.001 3.30066 18.001 2.60898C18.001 1.91729 18.2757 1.25394 18.7648 0.764842C19.2539 0.275747 19.9173 0.000976563 20.609 0.000976562C21.3007 0.000976563 21.964 0.275747 22.4531 0.764842C22.9422 1.25394 23.217 1.91729 23.217 2.60898C23.217 3.30066 22.9422 3.96402 22.4531 4.45311C21.964 4.94221 21.3007 5.21698 20.609 5.21698Z" fill="white"/>
<path d="M2.60898 5.21698C1.91729 5.21698 1.25394 4.94221 0.764842 4.45311C0.275747 3.96402 0.000976563 3.30066 0.000976562 2.60898C0.000976562 1.91729 0.275747 1.25394 0.764842 0.764842C1.25394 0.275747 1.91729 0.000976563 2.60898 0.000976562C3.30066 0.000976563 3.96402 0.275747 4.45311 0.764842C4.94221 1.25394 5.21698 1.91729 5.21698 2.60898C5.21698 3.30066 4.94221 3.96402 4.45311 4.45311C3.96402 4.94221 3.30066 5.21698 2.60898 5.21698Z" fill="white"/>
<path d="M12 14.608C11.6575 14.608 11.3184 14.5406 11.002 14.4095C10.6856 14.2784 10.3981 14.0863 10.1559 13.8442C9.91372 13.602 9.72161 13.3145 9.59055 12.9981C9.45949 12.6816 9.39203 12.3425 9.39203 12C9.39203 11.6575 9.45949 11.3184 9.59055 11.002C9.72161 10.6856 9.91372 10.3981 10.1559 10.1559C10.3981 9.91372 10.6856 9.72161 11.002 9.59055C11.3184 9.45949 11.6575 9.39203 12 9.39203C12.6917 9.39203 13.3551 9.6668 13.8442 10.1559C14.3333 10.645 14.608 11.3083 14.608 12C14.608 12.6917 14.3333 13.3551 13.8442 13.8442C13.3551 14.3333 12.6917 14.608 12 14.608V14.608Z" fill="white"/>
<path d="M20.609 14.608C20.2665 14.608 19.9274 14.5406 19.6109 14.4095C19.2945 14.2784 19.007 14.0863 18.7648 13.8442C18.5227 13.602 18.3306 13.3145 18.1995 12.9981C18.0684 12.6816 18.001 12.3425 18.001 12C18.001 11.6575 18.0684 11.3184 18.1995 11.002C18.3306 10.6856 18.5227 10.3981 18.7648 10.1559C19.007 9.91372 19.2945 9.72161 19.6109 9.59055C19.9274 9.45949 20.2665 9.39203 20.609 9.39203C21.3007 9.39203 21.964 9.6668 22.4531 10.1559C22.9422 10.645 23.217 11.3083 23.217 12C23.217 12.6917 22.9422 13.3551 22.4531 13.8442C21.964 14.3333 21.3007 14.608 20.609 14.608V14.608Z" fill="white"/>
<path d="M2.60898 14.608C2.26649 14.608 1.92736 14.5406 1.61094 14.4095C1.29452 14.2784 1.00702 14.0863 0.764842 13.8442C0.522667 13.602 0.330563 13.3145 0.199499 12.9981C0.0684345 12.6816 0.000976563 12.3425 0.000976562 12C0.000976563 11.6575 0.0684345 11.3184 0.199499 11.002C0.330563 10.6856 0.522667 10.3981 0.764842 10.1559C1.00702 9.91372 1.29452 9.72161 1.61094 9.59055C1.92736 9.45949 2.26649 9.39203 2.60898 9.39203C3.30066 9.39203 3.96402 9.6668 4.45311 10.1559C4.94221 10.645 5.21698 11.3083 5.21698 12C5.21698 12.6917 4.94221 13.3551 4.45311 13.8442C3.96402 14.3333 3.30066 14.608 2.60898 14.608V14.608Z" fill="white"/>
<path d="M12 23.999C11.6575 23.999 11.3184 23.9316 11.002 23.8005C10.6856 23.6694 10.3981 23.4773 10.1559 23.2352C9.91372 22.993 9.72161 22.7055 9.59055 22.3891C9.45949 22.0726 9.39203 21.7335 9.39203 21.391C9.39203 21.0485 9.45949 20.7094 9.59055 20.393C9.72161 20.0766 9.91372 19.7891 10.1559 19.5469C10.3981 19.3047 10.6856 19.1126 11.002 18.9815C11.3184 18.8505 11.6575 18.783 12 18.783C12.6918 18.783 13.3553 19.0578 13.8445 19.547C14.3337 20.0362 14.6085 20.6997 14.6085 21.3915C14.6085 22.0833 14.3337 22.7468 13.8445 23.236C13.3553 23.7252 12.6918 24 12 24V23.999Z" fill="white"/>
<path d="M20.609 23.999C20.2665 23.999 19.9274 23.9316 19.6109 23.8005C19.2945 23.6694 19.007 23.4773 18.7648 23.2352C18.5227 22.993 18.3306 22.7055 18.1995 22.3891C18.0684 22.0726 18.001 21.7335 18.001 21.391C18.001 21.0485 18.0684 20.7094 18.1995 20.393C18.3306 20.0766 18.5227 19.7891 18.7648 19.5469C19.007 19.3047 19.2945 19.1126 19.6109 18.9815C19.9274 18.8505 20.2665 18.783 20.609 18.783C21.3007 18.783 21.964 19.0578 22.4531 19.5469C22.9422 20.036 23.217 20.6993 23.217 21.391C23.217 22.0827 22.9422 22.7461 22.4531 23.2352C21.964 23.7242 21.3007 23.999 20.609 23.999V23.999Z" fill="white"/>
<path d="M2.60898 23.999C2.26649 23.999 1.92736 23.9316 1.61094 23.8005C1.29452 23.6694 1.00702 23.4773 0.764842 23.2352C0.522667 22.993 0.330563 22.7055 0.199499 22.3891C0.0684345 22.0726 0.000976563 21.7335 0.000976562 21.391C0.000976563 21.0485 0.0684345 20.7094 0.199499 20.393C0.330563 20.0766 0.522667 19.7891 0.764842 19.5469C1.00702 19.3047 1.29452 19.1126 1.61094 18.9815C1.92736 18.8505 2.26649 18.783 2.60898 18.783C3.30066 18.783 3.96402 19.0578 4.45311 19.5469C4.94221 20.036 5.21698 20.6993 5.21698 21.391C5.21698 22.0827 4.94221 22.7461 4.45311 23.2352C3.96402 23.7242 3.30066 23.999 2.60898 23.999V23.999Z" fill="white"/>
</g>
<defs>
<clipPath id="clip0_301:21">
<rect width="23" height="24" fill="white"/>
</clipPath>
</defs>
</svg>
