<svg width="24" height="24" viewBox="0 0 24 24" fill="none" xmlns="http://www.w3.org/2000/svg">
<path d="M13.4992 15.2492C13.4991 14.5178 13.7456 13.8078 14.1989 13.2339C14.6522 12.6599 15.2857 12.2556 15.9972 12.0862L15.9992 2.74921C15.9993 2.55919 16.0714 2.37627 16.2012 2.23742C16.3309 2.09857 16.5085 2.01414 16.6981 2.00119C16.8877 1.98824 17.0751 2.04773 17.2225 2.16765C17.3699 2.28756 17.4663 2.45896 17.4922 2.64721L17.4992 2.74921V12.0862C18.211 12.2553 18.8449 12.6595 19.2985 13.2334C19.7521 13.8074 19.9989 14.5176 19.9989 15.2492C19.9989 15.9808 19.7521 16.691 19.2985 17.265C18.8449 17.8389 18.211 18.2431 17.4992 18.4122V21.2492C17.4991 21.4392 17.4269 21.6221 17.2972 21.761C17.1675 21.8998 16.9899 21.9843 16.8003 21.9972C16.6107 22.0102 16.4233 21.9507 16.2759 21.8308C16.1285 21.7108 16.0321 21.5394 16.0062 21.3512L15.9992 21.2492V18.4122C15.2874 18.2432 14.6533 17.839 14.1997 17.265C13.746 16.691 13.4992 15.9808 13.4992 15.2492V15.2492ZM14.9992 15.2492C14.9992 15.6121 15.1119 15.966 15.3219 16.262C15.5319 16.558 15.8287 16.7813 16.1712 16.9012L16.2342 16.9222L16.3822 16.9612C16.6517 17.0186 16.9309 17.0117 17.1972 16.9412L17.3272 16.9012L17.3962 16.8762C17.7282 16.7448 18.0121 16.5149 18.2098 16.2175C18.4074 15.92 18.5093 15.5692 18.5018 15.2122C18.4942 14.8552 18.3777 14.509 18.1677 14.2201C17.9578 13.9313 17.6645 13.7135 17.3272 13.5962L17.1972 13.5562L17.2572 13.5742C16.9931 13.4942 16.7138 13.4777 16.4422 13.5262L16.3052 13.5562L16.2352 13.5762L16.1012 13.6232C15.7759 13.7529 15.497 13.9771 15.3005 14.267C15.1041 14.5569 14.9991 14.899 14.9992 15.2492V15.2492ZM3.99921 8.74921C3.99922 8.01759 4.24602 7.30736 4.69969 6.73338C5.15336 6.15939 5.78737 5.75522 6.4992 5.58621V2.74921C6.49926 2.55919 6.57145 2.37627 6.70118 2.23742C6.8309 2.09857 7.0085 2.01414 7.19808 2.00119C7.38766 1.98824 7.57509 2.04773 7.7225 2.16765C7.86991 2.28756 7.9663 2.45896 7.9922 2.64721L7.9992 2.74921V5.58621C8.71098 5.75527 9.34493 6.15947 9.79854 6.73345C10.2522 7.30743 10.4989 8.01762 10.4989 8.74921C10.4989 9.48079 10.2522 10.191 9.79854 10.765C9.34493 11.3389 8.71098 11.7431 7.9992 11.9122V21.2492C7.99914 21.4392 7.92696 21.6221 7.79723 21.761C7.6675 21.8998 7.4899 21.9843 7.30032 21.9972C7.11074 22.0102 6.92331 21.9507 6.7759 21.8308C6.6285 21.7108 6.53211 21.5394 6.5062 21.3512L6.4992 21.2492L6.4972 11.9122C5.78574 11.7428 5.15218 11.3385 4.6989 10.7645C4.24563 10.1906 3.99911 9.48056 3.99921 8.74921V8.74921ZM5.4992 8.74921C5.49923 9.11222 5.61215 9.46624 5.82232 9.76222C6.03248 10.0582 6.32949 10.2815 6.6722 10.4012L6.7342 10.4222L6.8822 10.4602C7.1516 10.5179 7.43078 10.5113 7.6972 10.4412L7.8272 10.4012L7.8962 10.3762C8.22828 10.2449 8.51223 10.0151 8.70994 9.71772C8.90765 9.42034 9.00965 9.0696 9.00225 8.71257C8.99485 8.35554 8.8784 8.00933 8.66853 7.7204C8.45867 7.43147 8.16544 7.21366 7.8282 7.09621L7.6972 7.05621L7.7572 7.07421C7.49312 6.99418 7.21385 6.97773 6.9422 7.02621L6.8052 7.05621L6.7352 7.07621L6.6012 7.12321C6.27592 7.25287 5.99702 7.47714 5.80056 7.76701C5.6041 8.05689 5.49913 8.39903 5.4992 8.74921V8.74921Z" fill="black"/>
</svg>
